<?xml version="1.0" encoding="utf-8" standalone="no"?>
<!DOCTYPE svg PUBLIC "-//W3C//DTD SVG 1.1//EN"
  "http://www.w3.org/Graphics/SVG/1.1/DTD/svg11.dtd">
<!-- Created with matplotlib (http://matplotlib.org/) -->
<svg height="396pt" version="1.1" viewBox="0 0 576 396" width="576pt" xmlns="http://www.w3.org/2000/svg" xmlns:xlink="http://www.w3.org/1999/xlink">
 <defs>
  <style type="text/css">
*{stroke-linecap:butt;stroke-linejoin:round;}
  </style>
 </defs>
 <g id="figure_1">
  <g id="patch_1">
   <path d="
M0 396
L576 396
L576 0
L0 0
z
" style="fill:#ffffff;"/>
  </g>
  <g id="axes_1">
   <g id="patch_2">
    <path d="
M72 356.4
L518.4 356.4
L518.4 39.6
L72 39.6
z
" style="fill:#eaeaf2;"/>
   </g>
   <g id="matplotlib.axis_1">
    <g id="xtick_1">
     <g id="line2d_1">
      <path clip-path="url(#p3d386a08f4)" d="
M72 356.4
L72 39.6" style="fill:none;stroke:#ffffff;stroke-linecap:round;"/>
     </g>
     <g id="line2d_2">
      <defs>
       <path d="
M0 0
L0 0" id="m219da94a98" style="stroke:#262626;"/>
      </defs>
      <g>
       <use style="fill:#262626;stroke:#262626;" x="72.0" xlink:href="#m219da94a98" y="356.4"/>
      </g>
     </g>
     <g id="line2d_3">
      <g>
       <use style="fill:#262626;stroke:#262626;" x="72.0" xlink:href="#m219da94a98" y="39.6"/>
      </g>
     </g>
     <g id="text_1">
      <!-- 0 -->
      <defs>
       <path d="
M31.7812 66.4062
Q24.1719 66.4062 20.3281 58.9062
Q16.5 51.4219 16.5 36.375
Q16.5 21.3906 20.3281 13.8906
Q24.1719 6.39062 31.7812 6.39062
Q39.4531 6.39062 43.2812 13.8906
Q47.125 21.3906 47.125 36.375
Q47.125 51.4219 43.2812 58.9062
Q39.4531 66.4062 31.7812 66.4062
M31.7812 74.2188
Q44.0469 74.2188 50.5156 64.5156
Q56.9844 54.8281 56.9844 36.375
Q56.9844 17.9688 50.5156 8.26562
Q44.0469 -1.42188 31.7812 -1.42188
Q19.5312 -1.42188 13.0625 8.26562
Q6.59375 17.9688 6.59375 36.375
Q6.59375 54.8281 13.0625 64.5156
Q19.5312 74.2188 31.7812 74.2188" id="BitstreamVeraSans-Roman-30"/>
      </defs>
      <g style="fill:#262626;" transform="translate(69.48046875 370.9984375)scale(0.1 -0.1)">
       <use xlink:href="#BitstreamVeraSans-Roman-30"/>
      </g>
     </g>
    </g>
    <g id="xtick_2">
     <g id="line2d_4">
      <path clip-path="url(#p3d386a08f4)" d="
M161.28 356.4
L161.28 39.6" style="fill:none;stroke:#ffffff;stroke-linecap:round;"/>
     </g>
     <g id="line2d_5">
      <g>
       <use style="fill:#262626;stroke:#262626;" x="161.28" xlink:href="#m219da94a98" y="356.4"/>
      </g>
     </g>
     <g id="line2d_6">
      <g>
       <use style="fill:#262626;stroke:#262626;" x="161.28" xlink:href="#m219da94a98" y="39.6"/>
      </g>
     </g>
     <g id="text_2">
      <!-- 5000 -->
      <defs>
       <path d="
M10.7969 72.9062
L49.5156 72.9062
L49.5156 64.5938
L19.8281 64.5938
L19.8281 46.7344
Q21.9688 47.4688 24.1094 47.8281
Q26.2656 48.1875 28.4219 48.1875
Q40.625 48.1875 47.75 41.5
Q54.8906 34.8125 54.8906 23.3906
Q54.8906 11.625 47.5625 5.09375
Q40.2344 -1.42188 26.9062 -1.42188
Q22.3125 -1.42188 17.5469 -0.640625
Q12.7969 0.140625 7.71875 1.70312
L7.71875 11.625
Q12.1094 9.23438 16.7969 8.0625
Q21.4844 6.89062 26.7031 6.89062
Q35.1562 6.89062 40.0781 11.3281
Q45.0156 15.7656 45.0156 23.3906
Q45.0156 31 40.0781 35.4375
Q35.1562 39.8906 26.7031 39.8906
Q22.75 39.8906 18.8125 39.0156
Q14.8906 38.1406 10.7969 36.2812
z
" id="BitstreamVeraSans-Roman-35"/>
      </defs>
      <g style="fill:#262626;" transform="translate(149.27296875 370.9984375)scale(0.1 -0.1)">
       <use xlink:href="#BitstreamVeraSans-Roman-35"/>
       <use x="63.623046875" xlink:href="#BitstreamVeraSans-Roman-30"/>
       <use x="127.24609375" xlink:href="#BitstreamVeraSans-Roman-30"/>
       <use x="190.869140625" xlink:href="#BitstreamVeraSans-Roman-30"/>
      </g>
     </g>
    </g>
    <g id="xtick_3">
     <g id="line2d_7">
      <path clip-path="url(#p3d386a08f4)" d="
M250.56 356.4
L250.56 39.6" style="fill:none;stroke:#ffffff;stroke-linecap:round;"/>
     </g>
     <g id="line2d_8">
      <g>
       <use style="fill:#262626;stroke:#262626;" x="250.56" xlink:href="#m219da94a98" y="356.4"/>
      </g>
     </g>
     <g id="line2d_9">
      <g>
       <use style="fill:#262626;stroke:#262626;" x="250.56" xlink:href="#m219da94a98" y="39.6"/>
      </g>
     </g>
     <g id="text_3">
      <!-- 10000 -->
      <defs>
       <path d="
M12.4062 8.29688
L28.5156 8.29688
L28.5156 63.9219
L10.9844 60.4062
L10.9844 69.3906
L28.4219 72.9062
L38.2812 72.9062
L38.2812 8.29688
L54.3906 8.29688
L54.3906 0
L12.4062 0
z
" id="BitstreamVeraSans-Roman-31"/>
      </defs>
      <g style="fill:#262626;" transform="translate(235.535 370.9984375)scale(0.1 -0.1)">
       <use xlink:href="#BitstreamVeraSans-Roman-31"/>
       <use x="63.623046875" xlink:href="#BitstreamVeraSans-Roman-30"/>
       <use x="127.24609375" xlink:href="#BitstreamVeraSans-Roman-30"/>
       <use x="190.869140625" xlink:href="#BitstreamVeraSans-Roman-30"/>
       <use x="254.4921875" xlink:href="#BitstreamVeraSans-Roman-30"/>
      </g>
     </g>
    </g>
    <g id="xtick_4">
     <g id="line2d_10">
      <path clip-path="url(#p3d386a08f4)" d="
M339.84 356.4
L339.84 39.6" style="fill:none;stroke:#ffffff;stroke-linecap:round;"/>
     </g>
     <g id="line2d_11">
      <g>
       <use style="fill:#262626;stroke:#262626;" x="339.84" xlink:href="#m219da94a98" y="356.4"/>
      </g>
     </g>
     <g id="line2d_12">
      <g>
       <use style="fill:#262626;stroke:#262626;" x="339.84" xlink:href="#m219da94a98" y="39.6"/>
      </g>
     </g>
     <g id="text_4">
      <!-- 15000 -->
      <g style="fill:#262626;" transform="translate(324.815 370.9984375)scale(0.1 -0.1)">
       <use xlink:href="#BitstreamVeraSans-Roman-31"/>
       <use x="63.623046875" xlink:href="#BitstreamVeraSans-Roman-35"/>
       <use x="127.24609375" xlink:href="#BitstreamVeraSans-Roman-30"/>
       <use x="190.869140625" xlink:href="#BitstreamVeraSans-Roman-30"/>
       <use x="254.4921875" xlink:href="#BitstreamVeraSans-Roman-30"/>
      </g>
     </g>
    </g>
    <g id="xtick_5">
     <g id="line2d_13">
      <path clip-path="url(#p3d386a08f4)" d="
M429.12 356.4
L429.12 39.6" style="fill:none;stroke:#ffffff;stroke-linecap:round;"/>
     </g>
     <g id="line2d_14">
      <g>
       <use style="fill:#262626;stroke:#262626;" x="429.12" xlink:href="#m219da94a98" y="356.4"/>
      </g>
     </g>
     <g id="line2d_15">
      <g>
       <use style="fill:#262626;stroke:#262626;" x="429.12" xlink:href="#m219da94a98" y="39.6"/>
      </g>
     </g>
     <g id="text_5">
      <!-- 20000 -->
      <defs>
       <path d="
M19.1875 8.29688
L53.6094 8.29688
L53.6094 0
L7.32812 0
L7.32812 8.29688
Q12.9375 14.1094 22.625 23.8906
Q32.3281 33.6875 34.8125 36.5312
Q39.5469 41.8438 41.4219 45.5312
Q43.3125 49.2188 43.3125 52.7812
Q43.3125 58.5938 39.2344 62.25
Q35.1562 65.9219 28.6094 65.9219
Q23.9688 65.9219 18.8125 64.3125
Q13.6719 62.7031 7.8125 59.4219
L7.8125 69.3906
Q13.7656 71.7812 18.9375 73
Q24.125 74.2188 28.4219 74.2188
Q39.75 74.2188 46.4844 68.5469
Q53.2188 62.8906 53.2188 53.4219
Q53.2188 48.9219 51.5312 44.8906
Q49.8594 40.875 45.4062 35.4062
Q44.1875 33.9844 37.6406 27.2188
Q31.1094 20.4531 19.1875 8.29688" id="BitstreamVeraSans-Roman-32"/>
      </defs>
      <g style="fill:#262626;" transform="translate(413.9121875 370.9984375)scale(0.1 -0.1)">
       <use xlink:href="#BitstreamVeraSans-Roman-32"/>
       <use x="63.623046875" xlink:href="#BitstreamVeraSans-Roman-30"/>
       <use x="127.24609375" xlink:href="#BitstreamVeraSans-Roman-30"/>
       <use x="190.869140625" xlink:href="#BitstreamVeraSans-Roman-30"/>
       <use x="254.4921875" xlink:href="#BitstreamVeraSans-Roman-30"/>
      </g>
     </g>
    </g>
    <g id="xtick_6">
     <g id="line2d_16">
      <path clip-path="url(#p3d386a08f4)" d="
M518.4 356.4
L518.4 39.6" style="fill:none;stroke:#ffffff;stroke-linecap:round;"/>
     </g>
     <g id="line2d_17">
      <g>
       <use style="fill:#262626;stroke:#262626;" x="518.4" xlink:href="#m219da94a98" y="356.4"/>
      </g>
     </g>
     <g id="line2d_18">
      <g>
       <use style="fill:#262626;stroke:#262626;" x="518.4" xlink:href="#m219da94a98" y="39.6"/>
      </g>
     </g>
     <g id="text_6">
      <!-- 25000 -->
      <g style="fill:#262626;" transform="translate(503.1921875 370.9984375)scale(0.1 -0.1)">
       <use xlink:href="#BitstreamVeraSans-Roman-32"/>
       <use x="63.623046875" xlink:href="#BitstreamVeraSans-Roman-35"/>
       <use x="127.24609375" xlink:href="#BitstreamVeraSans-Roman-30"/>
       <use x="190.869140625" xlink:href="#BitstreamVeraSans-Roman-30"/>
       <use x="254.4921875" xlink:href="#BitstreamVeraSans-Roman-30"/>
      </g>
     </g>
    </g>
    <g id="text_7">
     <!-- uS -->
     <defs>
      <path d="
M8.5 21.5781
L8.5 54.6875
L17.4844 54.6875
L17.4844 21.9219
Q17.4844 14.1562 20.5 10.2656
Q23.5312 6.39062 29.5938 6.39062
Q36.8594 6.39062 41.0781 11.0312
Q45.3125 15.6719 45.3125 23.6875
L45.3125 54.6875
L54.2969 54.6875
L54.2969 0
L45.3125 0
L45.3125 8.40625
Q42.0469 3.42188 37.7188 1
Q33.4062 -1.42188 27.6875 -1.42188
Q18.2656 -1.42188 13.375 4.4375
Q8.5 10.2969 8.5 21.5781" id="BitstreamVeraSans-Roman-75"/>
      <path d="
M53.5156 70.5156
L53.5156 60.8906
Q47.9062 63.5781 42.9219 64.8906
Q37.9375 66.2188 33.2969 66.2188
Q25.25 66.2188 20.875 63.0938
Q16.5 59.9688 16.5 54.2031
Q16.5 49.3594 19.4062 46.8906
Q22.3125 44.4375 30.4219 42.9219
L36.375 41.7031
Q47.4062 39.5938 52.6562 34.2969
Q57.9062 29 57.9062 20.125
Q57.9062 9.51562 50.7969 4.04688
Q43.7031 -1.42188 29.9844 -1.42188
Q24.8125 -1.42188 18.9688 -0.25
Q13.1406 0.921875 6.89062 3.21875
L6.89062 13.375
Q12.8906 10.0156 18.6562 8.29688
Q24.4219 6.59375 29.9844 6.59375
Q38.4219 6.59375 43.0156 9.90625
Q47.6094 13.2344 47.6094 19.3906
Q47.6094 24.75 44.3125 27.7812
Q41.0156 30.8125 33.5 32.3281
L27.4844 33.5
Q16.4531 35.6875 11.5156 40.375
Q6.59375 45.0625 6.59375 53.4219
Q6.59375 63.0938 13.4062 68.6562
Q20.2188 74.2188 32.1719 74.2188
Q37.3125 74.2188 42.625 73.2812
Q47.9531 72.3594 53.5156 70.5156" id="BitstreamVeraSans-Roman-53"/>
     </defs>
     <g style="fill:#262626;" transform="translate(288.99703125 386.43640625)scale(0.11 -0.11)">
      <use xlink:href="#BitstreamVeraSans-Roman-75"/>
      <use x="63.37890625" xlink:href="#BitstreamVeraSans-Roman-53"/>
     </g>
    </g>
   </g>
   <g id="matplotlib.axis_2">
    <g id="ytick_1">
     <g id="line2d_19">
      <path clip-path="url(#p3d386a08f4)" d="
M72 356.4
L518.4 356.4" style="fill:none;stroke:#ffffff;stroke-linecap:round;"/>
     </g>
     <g id="line2d_20">
      <g>
       <use style="fill:#262626;stroke:#262626;" x="72.0" xlink:href="#m219da94a98" y="356.4"/>
      </g>
     </g>
     <g id="line2d_21">
      <g>
       <use style="fill:#262626;stroke:#262626;" x="518.4" xlink:href="#m219da94a98" y="356.4"/>
      </g>
     </g>
     <g id="text_8">
      <!-- 0 -->
      <g style="fill:#262626;" transform="translate(59.9609375 359.159375)scale(0.1 -0.1)">
       <use xlink:href="#BitstreamVeraSans-Roman-30"/>
      </g>
     </g>
    </g>
    <g id="ytick_2">
     <g id="line2d_22">
      <path clip-path="url(#p3d386a08f4)" d="
M72 321.2
L518.4 321.2" style="fill:none;stroke:#ffffff;stroke-linecap:round;"/>
     </g>
     <g id="line2d_23">
      <g>
       <use style="fill:#262626;stroke:#262626;" x="72.0" xlink:href="#m219da94a98" y="321.2"/>
      </g>
     </g>
     <g id="line2d_24">
      <g>
       <use style="fill:#262626;stroke:#262626;" x="518.4" xlink:href="#m219da94a98" y="321.2"/>
      </g>
     </g>
     <g id="text_9">
      <!-- 100 -->
      <g style="fill:#262626;" transform="translate(47.675 323.959375)scale(0.1 -0.1)">
       <use xlink:href="#BitstreamVeraSans-Roman-31"/>
       <use x="63.623046875" xlink:href="#BitstreamVeraSans-Roman-30"/>
       <use x="127.24609375" xlink:href="#BitstreamVeraSans-Roman-30"/>
      </g>
     </g>
    </g>
    <g id="ytick_3">
     <g id="line2d_25">
      <path clip-path="url(#p3d386a08f4)" d="
M72 286
L518.4 286" style="fill:none;stroke:#ffffff;stroke-linecap:round;"/>
     </g>
     <g id="line2d_26">
      <g>
       <use style="fill:#262626;stroke:#262626;" x="72.0" xlink:href="#m219da94a98" y="286.0"/>
      </g>
     </g>
     <g id="line2d_27">
      <g>
       <use style="fill:#262626;stroke:#262626;" x="518.4" xlink:href="#m219da94a98" y="286.0"/>
      </g>
     </g>
     <g id="text_10">
      <!-- 200 -->
      <g style="fill:#262626;" transform="translate(47.309375 288.759375)scale(0.1 -0.1)">
       <use xlink:href="#BitstreamVeraSans-Roman-32"/>
       <use x="63.623046875" xlink:href="#BitstreamVeraSans-Roman-30"/>
       <use x="127.24609375" xlink:href="#BitstreamVeraSans-Roman-30"/>
      </g>
     </g>
    </g>
    <g id="ytick_4">
     <g id="line2d_28">
      <path clip-path="url(#p3d386a08f4)" d="
M72 250.8
L518.4 250.8" style="fill:none;stroke:#ffffff;stroke-linecap:round;"/>
     </g>
     <g id="line2d_29">
      <g>
       <use style="fill:#262626;stroke:#262626;" x="72.0" xlink:href="#m219da94a98" y="250.8"/>
      </g>
     </g>
     <g id="line2d_30">
      <g>
       <use style="fill:#262626;stroke:#262626;" x="518.4" xlink:href="#m219da94a98" y="250.8"/>
      </g>
     </g>
     <g id="text_11">
      <!-- 300 -->
      <defs>
       <path d="
M40.5781 39.3125
Q47.6562 37.7969 51.625 33
Q55.6094 28.2188 55.6094 21.1875
Q55.6094 10.4062 48.1875 4.48438
Q40.7656 -1.42188 27.0938 -1.42188
Q22.5156 -1.42188 17.6562 -0.515625
Q12.7969 0.390625 7.625 2.20312
L7.625 11.7188
Q11.7188 9.32812 16.5938 8.10938
Q21.4844 6.89062 26.8125 6.89062
Q36.0781 6.89062 40.9375 10.5469
Q45.7969 14.2031 45.7969 21.1875
Q45.7969 27.6406 41.2812 31.2656
Q36.7656 34.9062 28.7188 34.9062
L20.2188 34.9062
L20.2188 43.0156
L29.1094 43.0156
Q36.375 43.0156 40.2344 45.9219
Q44.0938 48.8281 44.0938 54.2969
Q44.0938 59.9062 40.1094 62.9062
Q36.1406 65.9219 28.7188 65.9219
Q24.6562 65.9219 20.0156 65.0312
Q15.375 64.1562 9.8125 62.3125
L9.8125 71.0938
Q15.4375 72.6562 20.3438 73.4375
Q25.25 74.2188 29.5938 74.2188
Q40.8281 74.2188 47.3594 69.1094
Q53.9062 64.0156 53.9062 55.3281
Q53.9062 49.2656 50.4375 45.0938
Q46.9688 40.9219 40.5781 39.3125" id="BitstreamVeraSans-Roman-33"/>
      </defs>
      <g style="fill:#262626;" transform="translate(47.3390625 253.559375)scale(0.1 -0.1)">
       <use xlink:href="#BitstreamVeraSans-Roman-33"/>
       <use x="63.623046875" xlink:href="#BitstreamVeraSans-Roman-30"/>
       <use x="127.24609375" xlink:href="#BitstreamVeraSans-Roman-30"/>
      </g>
     </g>
    </g>
    <g id="ytick_5">
     <g id="line2d_31">
      <path clip-path="url(#p3d386a08f4)" d="
M72 215.6
L518.4 215.6" style="fill:none;stroke:#ffffff;stroke-linecap:round;"/>
     </g>
     <g id="line2d_32">
      <g>
       <use style="fill:#262626;stroke:#262626;" x="72.0" xlink:href="#m219da94a98" y="215.6"/>
      </g>
     </g>
     <g id="line2d_33">
      <g>
       <use style="fill:#262626;stroke:#262626;" x="518.4" xlink:href="#m219da94a98" y="215.6"/>
      </g>
     </g>
     <g id="text_12">
      <!-- 400 -->
      <defs>
       <path d="
M37.7969 64.3125
L12.8906 25.3906
L37.7969 25.3906
z

M35.2031 72.9062
L47.6094 72.9062
L47.6094 25.3906
L58.0156 25.3906
L58.0156 17.1875
L47.6094 17.1875
L47.6094 0
L37.7969 0
L37.7969 17.1875
L4.89062 17.1875
L4.89062 26.7031
z
" id="BitstreamVeraSans-Roman-34"/>
      </defs>
      <g style="fill:#262626;" transform="translate(47.065625 218.359375)scale(0.1 -0.1)">
       <use xlink:href="#BitstreamVeraSans-Roman-34"/>
       <use x="63.623046875" xlink:href="#BitstreamVeraSans-Roman-30"/>
       <use x="127.24609375" xlink:href="#BitstreamVeraSans-Roman-30"/>
      </g>
     </g>
    </g>
    <g id="ytick_6">
     <g id="line2d_34">
      <path clip-path="url(#p3d386a08f4)" d="
M72 180.4
L518.4 180.4" style="fill:none;stroke:#ffffff;stroke-linecap:round;"/>
     </g>
     <g id="line2d_35">
      <g>
       <use style="fill:#262626;stroke:#262626;" x="72.0" xlink:href="#m219da94a98" y="180.4"/>
      </g>
     </g>
     <g id="line2d_36">
      <g>
       <use style="fill:#262626;stroke:#262626;" x="518.4" xlink:href="#m219da94a98" y="180.4"/>
      </g>
     </g>
     <g id="text_13">
      <!-- 500 -->
      <g style="fill:#262626;" transform="translate(47.3484375 183.159375)scale(0.1 -0.1)">
       <use xlink:href="#BitstreamVeraSans-Roman-35"/>
       <use x="63.623046875" xlink:href="#BitstreamVeraSans-Roman-30"/>
       <use x="127.24609375" xlink:href="#BitstreamVeraSans-Roman-30"/>
      </g>
     </g>
    </g>
    <g id="ytick_7">
     <g id="line2d_37">
      <path clip-path="url(#p3d386a08f4)" d="
M72 145.2
L518.4 145.2" style="fill:none;stroke:#ffffff;stroke-linecap:round;"/>
     </g>
     <g id="line2d_38">
      <g>
       <use style="fill:#262626;stroke:#262626;" x="72.0" xlink:href="#m219da94a98" y="145.2"/>
      </g>
     </g>
     <g id="line2d_39">
      <g>
       <use style="fill:#262626;stroke:#262626;" x="518.4" xlink:href="#m219da94a98" y="145.2"/>
      </g>
     </g>
     <g id="text_14">
      <!-- 600 -->
      <defs>
       <path d="
M33.0156 40.375
Q26.375 40.375 22.4844 35.8281
Q18.6094 31.2969 18.6094 23.3906
Q18.6094 15.5312 22.4844 10.9531
Q26.375 6.39062 33.0156 6.39062
Q39.6562 6.39062 43.5312 10.9531
Q47.4062 15.5312 47.4062 23.3906
Q47.4062 31.2969 43.5312 35.8281
Q39.6562 40.375 33.0156 40.375
M52.5938 71.2969
L52.5938 62.3125
Q48.875 64.0625 45.0938 64.9844
Q41.3125 65.9219 37.5938 65.9219
Q27.8281 65.9219 22.6719 59.3281
Q17.5312 52.7344 16.7969 39.4062
Q19.6719 43.6562 24.0156 45.9219
Q28.375 48.1875 33.5938 48.1875
Q44.5781 48.1875 50.9531 41.5156
Q57.3281 34.8594 57.3281 23.3906
Q57.3281 12.1562 50.6875 5.35938
Q44.0469 -1.42188 33.0156 -1.42188
Q20.3594 -1.42188 13.6719 8.26562
Q6.98438 17.9688 6.98438 36.375
Q6.98438 53.6562 15.1875 63.9375
Q23.3906 74.2188 37.2031 74.2188
Q40.9219 74.2188 44.7031 73.4844
Q48.4844 72.75 52.5938 71.2969" id="BitstreamVeraSans-Roman-36"/>
      </defs>
      <g style="fill:#262626;" transform="translate(47.275 147.959375)scale(0.1 -0.1)">
       <use xlink:href="#BitstreamVeraSans-Roman-36"/>
       <use x="63.623046875" xlink:href="#BitstreamVeraSans-Roman-30"/>
       <use x="127.24609375" xlink:href="#BitstreamVeraSans-Roman-30"/>
      </g>
     </g>
    </g>
    <g id="ytick_8">
     <g id="line2d_40">
      <path clip-path="url(#p3d386a08f4)" d="
M72 110
L518.4 110" style="fill:none;stroke:#ffffff;stroke-linecap:round;"/>
     </g>
     <g id="line2d_41">
      <g>
       <use style="fill:#262626;stroke:#262626;" x="72.0" xlink:href="#m219da94a98" y="110.0"/>
      </g>
     </g>
     <g id="line2d_42">
      <g>
       <use style="fill:#262626;stroke:#262626;" x="518.4" xlink:href="#m219da94a98" y="110.0"/>
      </g>
     </g>
     <g id="text_15">
      <!-- 700 -->
      <defs>
       <path d="
M8.20312 72.9062
L55.0781 72.9062
L55.0781 68.7031
L28.6094 0
L18.3125 0
L43.2188 64.5938
L8.20312 64.5938
z
" id="BitstreamVeraSans-Roman-37"/>
      </defs>
      <g style="fill:#262626;" transform="translate(47.396875 112.759375)scale(0.1 -0.1)">
       <use xlink:href="#BitstreamVeraSans-Roman-37"/>
       <use x="63.623046875" xlink:href="#BitstreamVeraSans-Roman-30"/>
       <use x="127.24609375" xlink:href="#BitstreamVeraSans-Roman-30"/>
      </g>
     </g>
    </g>
    <g id="ytick_9">
     <g id="line2d_43">
      <path clip-path="url(#p3d386a08f4)" d="
M72 74.8
L518.4 74.8" style="fill:none;stroke:#ffffff;stroke-linecap:round;"/>
     </g>
     <g id="line2d_44">
      <g>
       <use style="fill:#262626;stroke:#262626;" x="72.0" xlink:href="#m219da94a98" y="74.8"/>
      </g>
     </g>
     <g id="line2d_45">
      <g>
       <use style="fill:#262626;stroke:#262626;" x="518.4" xlink:href="#m219da94a98" y="74.8"/>
      </g>
     </g>
     <g id="text_16">
      <!-- 800 -->
      <defs>
       <path d="
M31.7812 34.625
Q24.75 34.625 20.7188 30.8594
Q16.7031 27.0938 16.7031 20.5156
Q16.7031 13.9219 20.7188 10.1562
Q24.75 6.39062 31.7812 6.39062
Q38.8125 6.39062 42.8594 10.1719
Q46.9219 13.9688 46.9219 20.5156
Q46.9219 27.0938 42.8906 30.8594
Q38.875 34.625 31.7812 34.625
M21.9219 38.8125
Q15.5781 40.375 12.0312 44.7188
Q8.5 49.0781 8.5 55.3281
Q8.5 64.0625 14.7188 69.1406
Q20.9531 74.2188 31.7812 74.2188
Q42.6719 74.2188 48.875 69.1406
Q55.0781 64.0625 55.0781 55.3281
Q55.0781 49.0781 51.5312 44.7188
Q48 40.375 41.7031 38.8125
Q48.8281 37.1562 52.7969 32.3125
Q56.7812 27.4844 56.7812 20.5156
Q56.7812 9.90625 50.3125 4.23438
Q43.8438 -1.42188 31.7812 -1.42188
Q19.7344 -1.42188 13.25 4.23438
Q6.78125 9.90625 6.78125 20.5156
Q6.78125 27.4844 10.7812 32.3125
Q14.7969 37.1562 21.9219 38.8125
M18.3125 54.3906
Q18.3125 48.7344 21.8438 45.5625
Q25.3906 42.3906 31.7812 42.3906
Q38.1406 42.3906 41.7188 45.5625
Q45.3125 48.7344 45.3125 54.3906
Q45.3125 60.0625 41.7188 63.2344
Q38.1406 66.4062 31.7812 66.4062
Q25.3906 66.4062 21.8438 63.2344
Q18.3125 60.0625 18.3125 54.3906" id="BitstreamVeraSans-Roman-38"/>
      </defs>
      <g style="fill:#262626;" transform="translate(47.2546875 77.559375)scale(0.1 -0.1)">
       <use xlink:href="#BitstreamVeraSans-Roman-38"/>
       <use x="63.623046875" xlink:href="#BitstreamVeraSans-Roman-30"/>
       <use x="127.24609375" xlink:href="#BitstreamVeraSans-Roman-30"/>
      </g>
     </g>
    </g>
    <g id="ytick_10">
     <g id="line2d_46">
      <path clip-path="url(#p3d386a08f4)" d="
M72 39.6
L518.4 39.6" style="fill:none;stroke:#ffffff;stroke-linecap:round;"/>
     </g>
     <g id="line2d_47">
      <g>
       <use style="fill:#262626;stroke:#262626;" x="72.0" xlink:href="#m219da94a98" y="39.6"/>
      </g>
     </g>
     <g id="line2d_48">
      <g>
       <use style="fill:#262626;stroke:#262626;" x="518.4" xlink:href="#m219da94a98" y="39.6"/>
      </g>
     </g>
     <g id="text_17">
      <!-- 900 -->
      <defs>
       <path d="
M10.9844 1.51562
L10.9844 10.5
Q14.7031 8.73438 18.5 7.8125
Q22.3125 6.89062 25.9844 6.89062
Q35.75 6.89062 40.8906 13.4531
Q46.0469 20.0156 46.7812 33.4062
Q43.9531 29.2031 39.5938 26.9531
Q35.25 24.7031 29.9844 24.7031
Q19.0469 24.7031 12.6719 31.3125
Q6.29688 37.9375 6.29688 49.4219
Q6.29688 60.6406 12.9375 67.4219
Q19.5781 74.2188 30.6094 74.2188
Q43.2656 74.2188 49.9219 64.5156
Q56.5938 54.8281 56.5938 36.375
Q56.5938 19.1406 48.4062 8.85938
Q40.2344 -1.42188 26.4219 -1.42188
Q22.7031 -1.42188 18.8906 -0.6875
Q15.0938 0.046875 10.9844 1.51562
M30.6094 32.4219
Q37.25 32.4219 41.125 36.9531
Q45.0156 41.5 45.0156 49.4219
Q45.0156 57.2812 41.125 61.8438
Q37.25 66.4062 30.6094 66.4062
Q23.9688 66.4062 20.0938 61.8438
Q16.2188 57.2812 16.2188 49.4219
Q16.2188 41.5 20.0938 36.9531
Q23.9688 32.4219 30.6094 32.4219" id="BitstreamVeraSans-Roman-39"/>
      </defs>
      <g style="fill:#262626;" transform="translate(47.20625 42.359375)scale(0.1 -0.1)">
       <use xlink:href="#BitstreamVeraSans-Roman-39"/>
       <use x="63.623046875" xlink:href="#BitstreamVeraSans-Roman-30"/>
       <use x="127.24609375" xlink:href="#BitstreamVeraSans-Roman-30"/>
      </g>
     </g>
    </g>
   </g>
   <g id="patch_3">
    <path clip-path="url(#p3d386a08f4)" d="
M424.763 356.4
L424.763 119.504
L426.457 119.504
L426.457 339.504
L428.151 339.504
L428.151 349.008
L429.845 349.008
L429.845 346.896
L431.538 346.896
L431.538 350.416
L433.232 350.416
L433.232 353.232
L434.926 353.232
L434.926 352.528
L436.62 352.528
L436.62 350.064
L438.314 350.064
L438.314 351.12
L440.008 351.12
L440.008 354.64
L441.701 354.64
L441.701 354.992
L443.395 354.992
L443.395 356.048
L445.089 356.048
L445.089 354.288
L446.783 354.288
L446.783 355.344
L448.477 355.344
L448.477 352.88
L450.17 352.88
L450.17 354.64
L451.864 354.64
L451.864 353.584
L453.558 353.584
L453.558 351.472
L455.252 351.472
L455.252 354.64
L456.946 354.64
L456.946 354.288
L458.64 354.288
L458.64 354.992
L460.333 354.992
L460.333 353.936
L462.027 353.936
L462.027 353.936
L463.721 353.936
L463.721 354.992
L465.415 354.992
L465.415 354.288
L467.109 354.288
L467.109 354.64
L468.802 354.64
L468.802 353.936
L470.496 353.936
L470.496 356.048
L472.19 356.048
L472.19 356.048
L473.884 356.048
L473.884 355.696
L475.578 355.696
L475.578 356.048
L477.272 356.048
L477.272 354.992
L478.965 354.992
L478.965 354.288
L480.659 354.288
L480.659 354.288
L482.353 354.288
L482.353 353.936
L484.047 353.936
L484.047 353.936
L485.741 353.936
L485.741 355.344
L487.434 355.344
L487.434 356.4
L489.128 356.4
L489.128 355.696
L490.822 355.696
L490.822 356.4
L492.516 356.4
L492.516 354.992
L494.21 354.992
L494.21 355.696
L495.904 355.696
L495.904 356.4
L497.597 356.4
L497.597 356.4
L499.291 356.4
L499.291 356.048
L500.985 356.048
L500.985 356.048
L502.679 356.048
L502.679 356.048
L504.373 356.048
L504.373 356.048
L506.067 356.048
L506.067 356.048
L507.76 356.048
L507.76 356.048
L509.454 356.048
L509.454 356.4" style="fill:none;stroke:#4c72b0;stroke-width:1.5;"/>
   </g>
   <g id="patch_4">
    <path clip-path="url(#p3d386a08f4)" d="
M151.745 356.4
L151.745 67.408
L152.547 67.408
L152.547 345.488
L153.35 345.488
L153.35 352.528
L154.152 352.528
L154.152 352.528
L154.955 352.528
L154.955 353.584
L155.757 353.584
L155.757 352.88
L156.56 352.88
L156.56 354.64
L157.362 354.64
L157.362 353.936
L158.164 353.936
L158.164 354.288
L158.967 354.288
L158.967 354.992
L159.769 354.992
L159.769 355.344
L160.572 355.344
L160.572 355.696
L161.374 355.696
L161.374 353.584
L162.177 353.584
L162.177 354.288
L162.979 354.288
L162.979 354.288
L163.782 354.288
L163.782 353.232
L164.584 353.232
L164.584 355.344
L165.387 355.344
L165.387 355.696
L166.189 355.696
L166.189 353.232
L166.991 353.232
L166.991 355.344
L167.794 355.344
L167.794 356.048
L168.596 356.048
L168.596 356.048
L169.399 356.048
L169.399 356.4
L170.201 356.4
L170.201 356.4
L171.004 356.4
L171.004 356.048
L171.806 356.048
L171.806 355.344
L172.609 355.344
L172.609 355.696
L173.411 355.696
L173.411 355.696
L174.213 355.696
L174.213 356.048
L175.016 356.048
L175.016 356.4
L175.818 356.4
L175.818 356.048
L176.621 356.048
L176.621 355.696
L177.423 355.696
L177.423 356.048
L178.226 356.048
L178.226 356.048
L179.028 356.048
L179.028 356.048
L179.831 356.048
L179.831 356.048
L180.633 356.048
L180.633 356.4
L181.435 356.4
L181.435 354.992
L182.238 354.992
L182.238 356.048
L183.04 356.048
L183.04 355.696
L183.843 355.696
L183.843 356.4
L184.645 356.4
L184.645 356.4
L185.448 356.4
L185.448 355.696
L186.25 355.696
L186.25 356.048
L187.053 356.048
L187.053 356.048
L187.855 356.048
L187.855 354.992
L188.658 354.992
L188.658 356.048
L189.46 356.048
L189.46 356.4
L190.262 356.4
L190.262 356.4
L191.065 356.4
L191.065 356.048
L191.867 356.048
L191.867 356.4" style="fill:none;stroke:#55a868;stroke-width:1.5;"/>
   </g>
   <g id="patch_5">
    <path clip-path="url(#p3d386a08f4)" d="
M296.7 356.4
L296.7 98.736
L298.151 98.736
L298.151 343.024
L299.601 343.024
L299.601 345.84
L301.052 345.84
L301.052 352.528
L302.502 352.528
L302.502 352.528
L303.953 352.528
L303.953 351.472
L305.404 351.472
L305.404 351.824
L306.854 351.824
L306.854 352.88
L308.305 352.88
L308.305 352.528
L309.755 352.528
L309.755 353.584
L311.206 353.584
L311.206 354.288
L312.657 354.288
L312.657 353.936
L314.107 353.936
L314.107 356.048
L315.558 356.048
L315.558 355.344
L317.009 355.344
L317.009 354.64
L318.459 354.64
L318.459 356.048
L319.91 356.048
L319.91 354.288
L321.36 354.288
L321.36 353.584
L322.811 353.584
L322.811 353.936
L324.262 353.936
L324.262 354.288
L325.712 354.288
L325.712 355.696
L327.163 355.696
L327.163 354.992
L328.614 354.992
L328.614 355.696
L330.064 355.696
L330.064 354.992
L331.515 354.992
L331.515 356.048
L332.965 356.048
L332.965 355.696
L334.416 355.696
L334.416 354.992
L335.867 354.992
L335.867 356.048
L337.317 356.048
L337.317 355.344
L338.768 355.344
L338.768 354.992
L340.219 354.992
L340.219 355.696
L341.669 355.696
L341.669 355.696
L343.12 355.696
L343.12 356.048
L344.57 356.048
L344.57 355.344
L346.021 355.344
L346.021 355.696
L347.472 355.696
L347.472 353.936
L348.922 353.936
L348.922 354.992
L350.373 354.992
L350.373 354.64
L351.824 354.64
L351.824 354.64
L353.274 354.64
L353.274 354.992
L354.725 354.992
L354.725 355.696
L356.175 355.696
L356.175 356.048
L357.626 356.048
L357.626 356.4
L359.077 356.4
L359.077 355.344
L360.527 355.344
L360.527 356.048
L361.978 356.048
L361.978 356.048
L363.428 356.048
L363.428 356.4
L364.879 356.4
L364.879 356.048
L366.33 356.048
L366.33 356.4
L367.78 356.4
L367.78 356.048
L369.231 356.048
L369.231 356.4" style="fill:none;stroke:#c44e52;stroke-width:1.5;"/>
   </g>
   <g id="patch_6">
    <path clip-path="url(#p3d386a08f4)" d="
M146.049 356.4
L146.049 70.576
L146.829 70.576
L146.829 348.656
L147.609 348.656
L147.609 350.768
L148.389 350.768
L148.389 351.12
L149.169 351.12
L149.169 354.64
L149.949 354.64
L149.949 354.992
L150.729 354.992
L150.729 353.584
L151.508 353.584
L151.508 353.936
L152.288 353.936
L152.288 355.344
L153.068 355.344
L153.068 353.936
L153.848 353.936
L153.848 354.288
L154.628 354.288
L154.628 353.936
L155.408 353.936
L155.408 352.88
L156.188 352.88
L156.188 355.344
L156.968 355.344
L156.968 354.288
L157.748 354.288
L157.748 354.288
L158.528 354.288
L158.528 354.992
L159.308 354.992
L159.308 352.88
L160.088 352.88
L160.088 354.992
L160.868 354.992
L160.868 355.696
L161.648 355.696
L161.648 356.048
L162.428 356.048
L162.428 355.696
L163.208 355.696
L163.208 355.344
L163.988 355.344
L163.988 355.344
L164.768 355.344
L164.768 356.048
L165.548 356.048
L165.548 355.696
L166.328 355.696
L166.328 356.048
L167.107 356.048
L167.107 355.696
L167.887 355.696
L167.887 356.048
L168.667 356.048
L168.667 356.048
L169.447 356.048
L169.447 355.696
L170.227 355.696
L170.227 355.696
L171.007 355.696
L171.007 355.696
L171.787 355.696
L171.787 356.4
L172.567 356.4
L172.567 356.048
L173.347 356.048
L173.347 354.992
L174.127 354.992
L174.127 356.4
L174.907 356.4
L174.907 355.344
L175.687 355.344
L175.687 356.048
L176.467 356.048
L176.467 356.4
L177.247 356.4
L177.247 356.4
L178.027 356.4
L178.027 356.4
L178.807 356.4
L178.807 356.048
L179.587 356.048
L179.587 356.4
L180.367 356.4
L180.367 356.048
L181.147 356.048
L181.147 356.048
L181.927 356.048
L181.927 356.048
L182.706 356.048
L182.706 354.288
L183.486 354.288
L183.486 356.4
L184.266 356.4
L184.266 356.048
L185.046 356.048
L185.046 356.4" style="fill:none;stroke:#8172b2;stroke-width:1.5;"/>
   </g>
   <g id="patch_7">
    <path clip-path="url(#p3d386a08f4)" d="
M145.852 356.4
L145.852 60.72
L146.89 60.72
L146.89 350.064
L147.928 350.064
L147.928 349.712
L148.966 349.712
L148.966 352.88
L150.004 352.88
L150.004 352.176
L151.041 352.176
L151.041 354.992
L152.079 354.992
L152.079 353.936
L153.117 353.936
L153.117 353.936
L154.155 353.936
L154.155 354.288
L155.193 354.288
L155.193 355.344
L156.23 355.344
L156.23 351.472
L157.268 351.472
L157.268 354.288
L158.306 354.288
L158.306 352.528
L159.344 352.528
L159.344 355.696
L160.381 355.696
L160.381 355.344
L161.419 355.344
L161.419 356.048
L162.457 356.048
L162.457 355.344
L163.495 355.344
L163.495 355.344
L164.533 355.344
L164.533 355.344
L165.57 355.344
L165.57 355.696
L166.608 355.696
L166.608 356.048
L167.646 356.048
L167.646 355.344
L168.684 355.344
L168.684 356.4
L169.722 356.4
L169.722 356.048
L170.759 356.048
L170.759 355.344
L171.797 355.344
L171.797 355.696
L172.835 355.696
L172.835 355.344
L173.873 355.344
L173.873 356.4
L174.911 356.4
L174.911 356.048
L175.948 356.048
L175.948 356.4
L176.986 356.4
L176.986 355.344
L178.024 355.344
L178.024 356.048
L179.062 356.048
L179.062 355.696
L180.1 355.696
L180.1 356.4
L181.137 356.4
L181.137 356.4
L182.175 356.4
L182.175 356.048
L183.213 356.048
L183.213 355.696
L184.251 355.696
L184.251 356.4
L185.288 356.4
L185.288 356.048
L186.326 356.048
L186.326 356.048
L187.364 356.048
L187.364 356.4
L188.402 356.4
L188.402 356.4
L189.44 356.4
L189.44 356.4
L190.477 356.4
L190.477 356.4
L191.515 356.4
L191.515 356.4
L192.553 356.4
L192.553 356.4
L193.591 356.4
L193.591 356.4
L194.629 356.4
L194.629 356.4
L195.666 356.4
L195.666 356.4
L196.704 356.4
L196.704 356.048
L197.742 356.048
L197.742 356.4" style="fill:none;stroke:#ccb974;stroke-width:1.5;"/>
   </g>
   <g id="patch_8">
    <path clip-path="url(#p3d386a08f4)" d="
M128.907 356.4
L128.907 50.512
L130.078 50.512
L130.078 353.232
L131.249 353.232
L131.249 351.824
L132.42 351.824
L132.42 352.88
L133.591 352.88
L133.591 351.824
L134.762 351.824
L134.762 352.88
L135.933 352.88
L135.933 353.232
L137.104 353.232
L137.104 351.824
L138.275 351.824
L138.275 350.064
L139.446 350.064
L139.446 355.696
L140.617 355.696
L140.617 354.992
L141.788 354.992
L141.788 355.344
L142.959 355.344
L142.959 356.4
L144.13 356.4
L144.13 356.048
L145.301 356.048
L145.301 355.696
L146.472 355.696
L146.472 355.344
L147.643 355.344
L147.643 355.696
L148.814 355.696
L148.814 354.64
L149.985 354.64
L149.985 356.048
L151.156 356.048
L151.156 356.048
L152.327 356.048
L152.327 355.696
L153.498 355.696
L153.498 356.4
L154.669 356.4
L154.669 356.4
L155.84 356.4
L155.84 356.048
L157.011 356.048
L157.011 355.344
L158.182 355.344
L158.182 356.048
L159.353 356.048
L159.353 356.048
L160.524 356.048
L160.524 356.048
L161.695 356.048
L161.695 356.4
L162.866 356.4
L162.866 356.4
L164.037 356.4
L164.037 356.048
L165.208 356.048
L165.208 356.4
L166.379 356.4
L166.379 356.4
L167.55 356.4
L167.55 356.048
L168.721 356.048
L168.721 356.4
L169.892 356.4
L169.892 356.4
L171.063 356.4
L171.063 356.4
L172.234 356.4
L172.234 356.4
L173.405 356.4
L173.405 356.4
L174.576 356.4
L174.576 356.4
L175.747 356.4
L175.747 356.4
L176.918 356.4
L176.918 356.4
L178.089 356.4
L178.089 356.4
L179.26 356.4
L179.26 356.4
L180.431 356.4
L180.431 356.4
L181.602 356.4
L181.602 356.4
L182.773 356.4
L182.773 356.4
L183.944 356.4
L183.944 356.4
L185.115 356.4
L185.115 356.4
L186.286 356.4
L186.286 356.048
L187.457 356.048
L187.457 356.4" style="fill:none;stroke:#64b5cd;stroke-width:1.5;"/>
   </g>
   <g id="patch_9">
    <path d="
M72 39.6
L518.4 39.6" style="fill:none;"/>
   </g>
   <g id="patch_10">
    <path d="
M518.4 356.4
L518.4 39.6" style="fill:none;"/>
   </g>
   <g id="patch_11">
    <path d="
M72 356.4
L518.4 356.4" style="fill:none;"/>
   </g>
   <g id="patch_12">
    <path d="
M72 356.4
L72 39.6" style="fill:none;"/>
   </g>
   <g id="legend_1">
    <g id="patch_13">
     <path d="
M294.5 56.2
L314.5 56.2
L314.5 49.2
L294.5 49.2
z
" style="fill:none;stroke:#4c72b0;stroke-width:1.5;"/>
    </g>
    <g id="text_18">
     <!-- NormalDFT $\mathrm{}\ \mu=20191.19\ \sigma=901.25$ -->
     <defs>
      <path id="BitstreamVeraSans-Roman-20"/>
      <path d="
M9.8125 72.9062
L23.0938 72.9062
L55.4219 11.9219
L55.4219 72.9062
L64.9844 72.9062
L64.9844 0
L51.7031 0
L19.3906 60.9844
L19.3906 0
L9.8125 0
z
" id="BitstreamVeraSans-Roman-4e"/>
      <path d="
M25 -2.20312
Q12.75 -2.20312 8.32812 7.875
Q3.90625 17.9688 3.90625 31.8906
Q3.90625 40.5781 5.48438 48.2344
Q7.07812 55.9062 11.7812 61.25
Q16.5 66.6094 25 66.6094
Q31.5938 66.6094 35.7812 63.375
Q39.9844 60.1562 42.1875 55.0469
Q44.3906 49.9531 45.1875 44.1094
Q46 38.2812 46 31.8906
Q46 23.2969 44.4062 15.7969
Q42.8281 8.29688 38.1875 3.04688
Q33.5469 -2.20312 25 -2.20312
M25 0.390625
Q30.5625 0.390625 33.2969 6.09375
Q36.0312 11.8125 36.6719 18.75
Q37.3125 25.6875 37.3125 33.5
Q37.3125 41.0156 36.6719 47.3594
Q36.0312 53.7188 33.3125 58.8594
Q30.6094 64.0156 25 64.0156
Q19.3438 64.0156 16.6094 58.8281
Q13.875 53.6562 13.2344 47.3281
Q12.5938 41.0156 12.5938 33.5
Q12.5938 27.9375 12.8594 23
Q13.1406 18.0625 14.3125 12.8125
Q15.4844 7.5625 18.0938 3.96875
Q20.7031 0.390625 25 0.390625" id="Cmr10-30"/>
      <path d="
M8.6875 11.375
Q9.71875 8.45312 11.8438 6.04688
Q13.9688 3.65625 16.875 2.3125
Q19.7812 0.984375 22.9062 0.984375
Q30.125 0.984375 32.8594 6.59375
Q35.5938 12.2031 35.5938 20.2188
Q35.5938 23.6875 35.4688 26.0469
Q35.3594 28.4219 34.8125 30.6094
Q33.8906 34.125 31.5625 36.7656
Q29.25 39.4062 25.875 39.4062
Q22.5156 39.4062 20.0938 38.375
Q17.6719 37.3594 16.1562 35.9844
Q14.6562 34.625 13.4844 33.1094
Q12.3125 31.5938 12.0156 31.5
L10.8906 31.5
Q10.6406 31.5 10.2656 31.8125
Q9.90625 32.125 9.90625 32.4219
L9.90625 65.8281
Q9.90625 66.0625 10.2188 66.3281
Q10.5469 66.6094 10.8906 66.6094
L11.1875 66.6094
Q17.9219 63.375 25.4844 63.375
Q32.9062 63.375 39.7969 66.6094
L40.0938 66.6094
Q40.4375 66.6094 40.7188 66.3594
Q41.0156 66.1094 41.0156 65.8281
L41.0156 64.8906
Q41.0156 64.4062 40.8281 64.4062
Q37.4062 59.8594 32.25 57.3125
Q27.0938 54.7812 21.5781 54.7812
Q17.5781 54.7812 13.375 55.9062
L13.375 37.0156
Q16.7031 39.7031 19.3125 40.8438
Q21.9219 42 25.9844 42
Q31.5 42 35.8594 38.8125
Q40.2344 35.6406 42.5781 30.5312
Q44.9219 25.4375 44.9219 20.125
Q44.9219 14.1094 41.9688 8.98438
Q39.0156 3.85938 33.9375 0.828125
Q28.8594 -2.20312 22.9062 -2.20312
Q17.9688 -2.20312 13.8438 0.328125
Q9.71875 2.875 7.34375 7.17188
Q4.98438 11.4688 4.98438 16.3125
Q4.98438 18.5625 6.4375 19.9688
Q7.90625 21.3906 10.1094 21.3906
Q12.3125 21.3906 13.7969 19.9375
Q15.2812 18.5 15.2812 16.3125
Q15.2812 14.1562 13.7969 12.6719
Q12.3125 11.1875 10.1094 11.1875
Q9.76562 11.1875 9.32812 11.25
Q8.89062 11.3281 8.6875 11.375" id="Cmr10-35"/>
      <path d="
M4.98438 0
L4.98438 2.6875
Q4.98438 2.9375 5.17188 3.21875
L20.7031 20.4062
Q24.2188 24.2188 26.4062 26.7969
Q28.6094 29.3906 30.75 32.7656
Q32.9062 36.1406 34.1562 39.625
Q35.4062 43.1094 35.4062 47.0156
Q35.4062 51.125 33.8906 54.8594
Q32.375 58.5938 29.375 60.8438
Q26.375 63.0938 22.125 63.0938
Q17.7812 63.0938 14.3125 60.4688
Q10.8438 57.8594 9.42188 53.7188
Q9.8125 53.8125 10.5 53.8125
Q12.75 53.8125 14.3281 52.2969
Q15.9219 50.7812 15.9219 48.3906
Q15.9219 46.0938 14.3281 44.5
Q12.75 42.9219 10.5 42.9219
Q8.15625 42.9219 6.5625 44.5469
Q4.98438 46.1875 4.98438 48.3906
Q4.98438 52.1562 6.39062 55.4375
Q7.8125 58.7344 10.4688 61.2969
Q13.1406 63.875 16.4844 65.2344
Q19.8281 66.6094 23.5781 66.6094
Q29.2969 66.6094 34.2188 64.1875
Q39.1562 61.7656 42.0312 57.3438
Q44.9219 52.9375 44.9219 47.0156
Q44.9219 42.6719 43.0156 38.7656
Q41.1094 34.8594 38.125 31.6562
Q35.1562 28.4688 30.5156 24.4062
Q25.875 20.3594 24.4219 19
L13.0938 8.10938
L22.7031 8.10938
Q29.7812 8.10938 34.5469 8.21875
Q39.3125 8.34375 39.5938 8.59375
Q40.7656 9.85938 42 17.8281
L44.9219 17.8281
L42.0938 0
z
" id="Cmr10-32"/>
      <path d="
M18.7031 -1.125
Q14.2656 -1.125 10.8125 1
Q7.375 3.125 5.48438 6.73438
Q3.60938 10.3594 3.60938 14.7031
Q3.60938 19.3438 5.70312 24.4688
Q7.8125 29.5938 11.4531 33.8438
Q15.0938 38.0938 19.6719 40.5938
Q24.2656 43.1094 29.1094 43.1094
L54.2969 43.1094
Q55.3281 43.1094 56.0469 42.4219
Q56.7812 41.75 56.7812 40.5781
Q56.7812 39.1094 55.7344 38.0156
Q54.6875 36.9219 53.2188 36.9219
L41.0156 36.9219
Q43.8906 32.625 43.8906 26.5156
Q43.8906 21.4844 41.9375 16.5938
Q39.9844 11.7188 36.5156 7.6875
Q33.0625 3.65625 28.4375 1.26562
Q23.8281 -1.125 18.7031 -1.125
M18.7969 1.51562
Q24.2656 1.51562 28.4844 5.78125
Q32.7188 10.0625 34.9531 16.2344
Q37.2031 22.4062 37.2031 27.6875
Q37.2031 31.9844 34.8281 34.4531
Q32.4688 36.9219 28.2188 36.9219
Q22.4062 36.9219 18.3281 33.0156
Q14.2656 29.1094 12.2344 23.1875
Q10.2031 17.2812 10.2031 11.8125
Q10.2031 7.51562 12.4688 4.51562
Q14.75 1.51562 18.7969 1.51562" id="Cmmi10-be"/>
      <path d="
M52 44.1875
Q55.375 50.25 60.0625 53.125
Q64.75 56 71.0938 56
Q79.6406 56 84.2812 50.0156
Q88.9219 44.0469 88.9219 33.0156
L88.9219 0
L79.8906 0
L79.8906 32.7188
Q79.8906 40.5781 77.0938 44.375
Q74.3125 48.1875 68.6094 48.1875
Q61.625 48.1875 57.5625 43.5469
Q53.5156 38.9219 53.5156 30.9062
L53.5156 0
L44.4844 0
L44.4844 32.7188
Q44.4844 40.625 41.7031 44.4062
Q38.9219 48.1875 33.1094 48.1875
Q26.2188 48.1875 22.1562 43.5312
Q18.1094 38.875 18.1094 30.9062
L18.1094 0
L9.07812 0
L9.07812 54.6875
L18.1094 54.6875
L18.1094 46.1875
Q21.1875 51.2188 25.4844 53.6094
Q29.7812 56 35.6875 56
Q41.6562 56 45.8281 52.9688
Q50 49.9531 52 44.1875" id="BitstreamVeraSans-Roman-6d"/>
      <path d="
M11.2812 4.20312
Q14.0156 0.984375 20.7969 0.984375
Q24.6094 0.984375 27.9062 3.5625
Q31.2031 6.15625 33.0156 9.90625
Q35.1094 14.1562 35.6875 18.9688
Q36.2812 23.7812 36.2812 30.9062
Q34.5781 26.8594 31.375 24.2656
Q28.1719 21.6875 24.0312 21.6875
Q18.2188 21.6875 13.6406 24.8281
Q9.07812 27.9844 6.64062 33.125
Q4.20312 38.2812 4.20312 44.0938
Q4.20312 50.0938 6.9375 55.2969
Q9.67188 60.5 14.5 63.5469
Q19.3438 66.6094 25.4844 66.6094
Q31.5469 66.6094 35.625 63.3125
Q39.7031 60.0156 41.8438 54.8125
Q44 49.6094 44.8438 43.7969
Q45.7031 37.9844 45.7031 32.3281
Q45.7031 24.6094 42.875 16.5781
Q40.0469 8.54688 34.4062 3.17188
Q28.7656 -2.20312 20.7969 -2.20312
Q14.8906 -2.20312 10.7812 0.578125
Q6.6875 3.375 6.6875 8.98438
Q6.6875 11.0312 8.07812 12.4219
Q9.46875 13.8125 11.5312 13.8125
Q13.5312 13.8125 14.9219 12.4219
Q16.3125 11.0312 16.3125 8.98438
Q16.3125 7.03125 14.8906 5.60938
Q13.4844 4.20312 11.5312 4.20312
z

M24.4219 24.3125
Q28.5156 24.3125 31.125 27.0625
Q33.7344 29.8281 34.9062 33.9219
Q36.0781 38.0312 36.0781 42.0938
L36.0781 44
L36.0781 44.3906
Q36.0781 51.9062 33.875 57.8125
Q31.6875 63.7188 25.4844 63.7188
Q21.5312 63.7188 19.0625 61.9844
Q16.6094 60.25 15.4375 57.375
Q14.2656 54.5 13.9375 51.2188
Q13.625 47.9531 13.625 44.0938
Q13.625 38.4219 14.1562 34.4219
Q14.7031 30.4219 17.0938 27.3594
Q19.4844 24.3125 24.4219 24.3125" id="Cmr10-39"/>
      <path d="
M30.6094 48.3906
Q23.3906 48.3906 19.1875 42.75
Q14.9844 37.1094 14.9844 27.2969
Q14.9844 17.4844 19.1562 11.8438
Q23.3438 6.20312 30.6094 6.20312
Q37.7969 6.20312 41.9844 11.8594
Q46.1875 17.5312 46.1875 27.2969
Q46.1875 37.0156 41.9844 42.7031
Q37.7969 48.3906 30.6094 48.3906
M30.6094 56
Q42.3281 56 49.0156 48.375
Q55.7188 40.7656 55.7188 27.2969
Q55.7188 13.875 49.0156 6.21875
Q42.3281 -1.42188 30.6094 -1.42188
Q18.8438 -1.42188 12.1719 6.21875
Q5.51562 13.875 5.51562 27.2969
Q5.51562 40.7656 12.1719 48.375
Q18.8438 56 30.6094 56" id="BitstreamVeraSans-Roman-6f"/>
      <path d="
M9.28125 0
L9.28125 3.51562
Q21.7812 3.51562 21.7812 6.6875
L21.7812 59.1875
Q16.6094 56.6875 8.6875 56.6875
L8.6875 60.2031
Q20.9531 60.2031 27.2031 66.6094
L28.6094 66.6094
Q28.9531 66.6094 29.2656 66.3281
Q29.5938 66.0625 29.5938 65.7188
L29.5938 6.6875
Q29.5938 3.51562 42.0938 3.51562
L42.0938 0
z
" id="Cmr10-31"/>
      <path d="
M9.42188 75.9844
L18.4062 75.9844
L18.4062 0
L9.42188 0
z
" id="BitstreamVeraSans-Roman-6c"/>
      <path d="
M9.8125 72.9062
L51.7031 72.9062
L51.7031 64.5938
L19.6719 64.5938
L19.6719 43.1094
L48.5781 43.1094
L48.5781 34.8125
L19.6719 34.8125
L19.6719 0
L9.8125 0
z
" id="BitstreamVeraSans-Roman-46"/>
      <path d="
M19.6719 64.7969
L19.6719 8.10938
L31.5938 8.10938
Q46.6875 8.10938 53.6875 14.9375
Q60.6875 21.7812 60.6875 36.5312
Q60.6875 51.1719 53.6875 57.9844
Q46.6875 64.7969 31.5938 64.7969
z

M9.8125 72.9062
L30.0781 72.9062
Q51.2656 72.9062 61.1719 64.0938
Q71.0938 55.2812 71.0938 36.5312
Q71.0938 17.6719 61.125 8.82812
Q51.1719 0 30.0781 0
L9.8125 0
z
" id="BitstreamVeraSans-Roman-44"/>
      <path d="
M-0.296875 72.9062
L61.375 72.9062
L61.375 64.5938
L35.5 64.5938
L35.5 0
L25.5938 0
L25.5938 64.5938
L-0.296875 64.5938
z
" id="BitstreamVeraSans-Roman-54"/>
      <path d="
M7.51562 13.2812
Q6.6875 13.2812 6.14062 13.9062
Q5.60938 14.5469 5.60938 15.2812
Q5.60938 16.1094 6.14062 16.6875
Q6.6875 17.2812 7.51562 17.2812
L70.3125 17.2812
Q71.0469 17.2812 71.5781 16.6875
Q72.125 16.1094 72.125 15.2812
Q72.125 14.5469 71.5781 13.9062
Q71.0469 13.2812 70.3125 13.2812
z

M7.51562 32.7188
Q6.6875 32.7188 6.14062 33.2969
Q5.60938 33.8906 5.60938 34.7188
Q5.60938 35.4531 6.14062 36.0781
Q6.6875 36.7188 7.51562 36.7188
L70.3125 36.7188
Q71.0469 36.7188 71.5781 36.0781
Q72.125 35.4531 72.125 34.7188
Q72.125 33.8906 71.5781 33.2969
Q71.0469 32.7188 70.3125 32.7188
z
" id="Cmr10-3d"/>
      <path d="
M2.78125 -18.7969
Q2.78125 -18.2188 2.875 -18.0156
L17.5781 41.0156
Q18.0156 42.4375 19.1562 43.3125
Q20.3125 44.1875 21.7812 44.1875
Q23.0469 44.1875 23.9219 43.4219
Q24.8125 42.6719 24.8125 41.4062
Q24.8125 41.1094 24.7812 40.9375
Q24.75 40.7656 24.7031 40.5781
L18.7969 17.1875
Q17.8281 13.0312 17.8281 10.0156
Q17.8281 6.29688 19.5781 3.90625
Q21.3438 1.51562 24.9062 1.51562
Q32.1719 1.51562 37.7031 10.5938
Q37.75 10.6875 37.7656 10.7344
Q37.7969 10.7969 37.7969 10.8906
L45.0156 39.8906
Q45.3594 41.2188 46.5781 42.1562
Q47.7969 43.1094 49.2188 43.1094
Q50.3906 43.1094 51.2969 42.3281
Q52.2031 41.5469 52.2031 40.2812
Q52.2031 39.7031 52.0938 39.5
L44.9219 10.6875
Q44.1875 7.85938 44.1875 5.8125
Q44.1875 1.51562 47.125 1.51562
Q50.25 1.51562 51.8281 5.375
Q53.4219 9.23438 54.5938 14.7031
Q54.7812 15.2812 55.4219 15.2812
L56.5938 15.2812
Q56.9844 15.2812 57.25 14.9688
Q57.5156 14.6562 57.5156 14.3125
Q55.7656 7.32812 53.6875 3.09375
Q51.6094 -1.125 46.9219 -1.125
Q43.6094 -1.125 41.0469 0.78125
Q38.4844 2.6875 37.7031 5.90625
Q35.2031 2.78125 31.8594 0.828125
Q28.5156 -1.125 24.8125 -1.125
Q18.5625 -1.125 14.9844 1.8125
L9.90625 -18.4062
Q9.625 -19.8281 8.45312 -20.7031
Q7.28125 -21.5781 5.8125 -21.5781
Q4.59375 -21.5781 3.6875 -20.8125
Q2.78125 -20.0625 2.78125 -18.7969" id="Cmmi10-b9"/>
      <path d="
M34.2812 27.4844
Q23.3906 27.4844 19.1875 25
Q14.9844 22.5156 14.9844 16.5
Q14.9844 11.7188 18.1406 8.90625
Q21.2969 6.10938 26.7031 6.10938
Q34.1875 6.10938 38.7031 11.4062
Q43.2188 16.7031 43.2188 25.4844
L43.2188 27.4844
z

M52.2031 31.2031
L52.2031 0
L43.2188 0
L43.2188 8.29688
Q40.1406 3.32812 35.5469 0.953125
Q30.9531 -1.42188 24.3125 -1.42188
Q15.9219 -1.42188 10.9531 3.29688
Q6 8.01562 6 15.9219
Q6 25.1406 12.1719 29.8281
Q18.3594 34.5156 30.6094 34.5156
L43.2188 34.5156
L43.2188 35.4062
Q43.2188 41.6094 39.1406 45
Q35.0625 48.3906 27.6875 48.3906
Q23 48.3906 18.5469 47.2656
Q14.1094 46.1406 10.0156 43.8906
L10.0156 52.2031
Q14.9375 54.1094 19.5781 55.0469
Q24.2188 56 28.6094 56
Q40.4844 56 46.3438 49.8438
Q52.2031 43.7031 52.2031 31.2031" id="BitstreamVeraSans-Roman-61"/>
      <path d="
M41.1094 46.2969
Q39.5938 47.1719 37.8125 47.5781
Q36.0312 48 33.8906 48
Q26.2656 48 22.1875 43.0469
Q18.1094 38.0938 18.1094 28.8125
L18.1094 0
L9.07812 0
L9.07812 54.6875
L18.1094 54.6875
L18.1094 46.1875
Q20.9531 51.1719 25.4844 53.5781
Q30.0312 56 36.5312 56
Q37.4531 56 38.5781 55.875
Q39.7031 55.7656 41.0625 55.5156
z
" id="BitstreamVeraSans-Roman-72"/>
      <path d="
M8.40625 5.51562
Q8.40625 7.76562 10.0625 9.375
Q11.7188 10.9844 13.9219 10.9844
Q15.2812 10.9844 16.5938 10.25
Q17.9219 9.51562 18.6562 8.20312
Q19.3906 6.89062 19.3906 5.51562
Q19.3906 3.32812 17.7656 1.65625
Q16.1562 0 13.9219 0
Q11.7188 0 10.0625 1.65625
Q8.40625 3.32812 8.40625 5.51562" id="Cmmi10-3a"/>
     </defs>
     <g style="fill:#262626;" transform="translate(322.5 56.2)scale(0.1 -0.1)">
      <use transform="translate(0.0 0.015625)" xlink:href="#BitstreamVeraSans-Roman-4e"/>
      <use transform="translate(74.8046875 0.015625)" xlink:href="#BitstreamVeraSans-Roman-6f"/>
      <use transform="translate(135.986328125 0.015625)" xlink:href="#BitstreamVeraSans-Roman-72"/>
      <use transform="translate(177.099609375 0.015625)" xlink:href="#BitstreamVeraSans-Roman-6d"/>
      <use transform="translate(274.51171875 0.015625)" xlink:href="#BitstreamVeraSans-Roman-61"/>
      <use transform="translate(335.791015625 0.015625)" xlink:href="#BitstreamVeraSans-Roman-6c"/>
      <use transform="translate(363.57421875 0.015625)" xlink:href="#BitstreamVeraSans-Roman-44"/>
      <use transform="translate(440.576171875 0.015625)" xlink:href="#BitstreamVeraSans-Roman-46"/>
      <use transform="translate(498.095703125 0.015625)" xlink:href="#BitstreamVeraSans-Roman-54"/>
      <use transform="translate(559.1796875 0.015625)" xlink:href="#BitstreamVeraSans-Roman-20"/>
      <use transform="translate(617.3046875 0.015625)" xlink:href="#Cmmi10-b9"/>
      <use transform="translate(695.068359375 0.015625)" xlink:href="#Cmr10-3d"/>
      <use transform="translate(779.126953125 0.015625)" xlink:href="#Cmr10-32"/>
      <use transform="translate(829.126953125 0.015625)" xlink:href="#Cmr10-30"/>
      <use transform="translate(879.126953125 0.015625)" xlink:href="#Cmr10-31"/>
      <use transform="translate(929.126953125 0.015625)" xlink:href="#Cmr10-39"/>
      <use transform="translate(979.126953125 0.015625)" xlink:href="#Cmr10-31"/>
      <use transform="translate(1029.12695312 0.015625)" xlink:href="#Cmmi10-3a"/>
      <use transform="translate(1057.66992188 0.015625)" xlink:href="#Cmr10-31"/>
      <use transform="translate(1107.66992188 0.015625)" xlink:href="#Cmr10-39"/>
      <use transform="translate(1184.0078125 0.015625)" xlink:href="#Cmmi10-be"/>
      <use transform="translate(1258.64648438 0.015625)" xlink:href="#Cmr10-3d"/>
      <use transform="translate(1342.70507812 0.015625)" xlink:href="#Cmr10-39"/>
      <use transform="translate(1392.70507812 0.015625)" xlink:href="#Cmr10-30"/>
      <use transform="translate(1442.70507812 0.015625)" xlink:href="#Cmr10-31"/>
      <use transform="translate(1492.70507812 0.015625)" xlink:href="#Cmmi10-3a"/>
      <use transform="translate(1521.24804688 0.015625)" xlink:href="#Cmr10-32"/>
      <use transform="translate(1571.24804688 0.015625)" xlink:href="#Cmr10-35"/>
     </g>
    </g>
    <g id="patch_14">
     <path d="
M294.5 71
L314.5 71
L314.5 64
L294.5 64
z
" style="fill:none;stroke:#55a868;stroke-width:1.5;"/>
    </g>
    <g id="text_19">
     <!-- NormalDFT2 $\mathrm{}\ \mu=4580.28\ \sigma=327.52$ -->
     <defs>
      <path d="
M9.51562 7.71875
Q11.8594 4.29688 15.8125 2.64062
Q19.7812 0.984375 24.3125 0.984375
Q30.125 0.984375 32.5625 5.9375
Q35.0156 10.8906 35.0156 17.1875
Q35.0156 20.0156 34.5 22.8438
Q33.9844 25.6875 32.7656 28.125
Q31.5469 30.5625 29.4219 32.0312
Q27.2969 33.5 24.2188 33.5
L17.5781 33.5
Q16.7031 33.5 16.7031 34.4219
L16.7031 35.2969
Q16.7031 36.0781 17.5781 36.0781
L23.0938 36.5312
Q26.6094 36.5312 28.9219 39.1562
Q31.25 41.7969 32.3281 45.5781
Q33.4062 49.3594 33.4062 52.7812
Q33.4062 57.5625 31.1562 60.6406
Q28.9062 63.7188 24.3125 63.7188
Q20.5156 63.7188 17.0469 62.2812
Q13.5781 60.8438 11.5312 57.9062
Q11.7188 57.9531 11.8594 57.9844
Q12.0156 58.0156 12.2031 58.0156
Q14.4531 58.0156 15.9688 56.4531
Q17.4844 54.8906 17.4844 52.6875
Q17.4844 50.5312 15.9688 48.9688
Q14.4531 47.4062 12.2031 47.4062
Q10.0156 47.4062 8.45312 48.9688
Q6.89062 50.5312 6.89062 52.6875
Q6.89062 56.9844 9.46875 60.1562
Q12.0625 63.3281 16.1406 64.9688
Q20.2188 66.6094 24.3125 66.6094
Q27.3438 66.6094 30.7031 65.7031
Q34.0781 64.7969 36.8125 63.1094
Q39.5469 61.4219 41.2812 58.7812
Q43.0156 56.1562 43.0156 52.7812
Q43.0156 48.5781 41.1406 45.0156
Q39.2656 41.4531 35.9844 38.8594
Q32.7188 36.2812 28.8125 35.0156
Q33.1562 34.1875 37.0625 31.7344
Q40.9688 29.2969 43.3281 25.4844
Q45.7031 21.6875 45.7031 17.2812
Q45.7031 11.7656 42.6719 7.29688
Q39.6562 2.82812 34.7188 0.3125
Q29.7812 -2.20312 24.3125 -2.20312
Q19.625 -2.20312 14.9062 -0.40625
Q10.2031 1.375 7.20312 4.9375
Q4.20312 8.5 4.20312 13.4844
Q4.20312 15.9688 5.85938 17.625
Q7.51562 19.2812 10.0156 19.2812
Q11.625 19.2812 12.9688 18.5312
Q14.3125 17.7812 15.0625 16.4062
Q15.8281 15.0469 15.8281 13.4844
Q15.8281 11.0312 14.1094 9.375
Q12.4062 7.71875 10.0156 7.71875
z
" id="Cmr10-33"/>
      <path d="
M4.20312 15.1875
Q4.20312 21.1875 8.15625 25.7969
Q12.1094 30.4219 18.3125 33.5
L14.5938 35.8906
Q11.1875 38.1406 9.03125 41.875
Q6.89062 45.6094 6.89062 49.7031
Q6.89062 54.5 9.40625 58.3438
Q11.9219 62.2031 16.0938 64.4062
Q20.2656 66.6094 25 66.6094
Q29.4375 66.6094 33.5625 64.7969
Q37.7031 62.9844 40.3594 59.6094
Q43.0156 56.25 43.0156 51.6094
Q43.0156 48.25 41.4219 45.3594
Q39.8438 42.4844 37.0781 40.1875
Q34.3281 37.8906 31.2031 36.2812
L36.9219 32.625
Q40.875 30.0312 43.2812 25.8281
Q45.7031 21.625 45.7031 17
Q45.7031 11.5781 42.7969 7.125
Q39.8906 2.6875 35.1094 0.234375
Q30.3281 -2.20312 25 -2.20312
Q19.8281 -2.20312 15.0156 -0.09375
Q10.2031 2 7.20312 5.98438
Q4.20312 9.96875 4.20312 15.1875
M9.625 15.1875
Q9.625 11.2344 11.7969 7.95312
Q13.9688 4.6875 17.5312 2.82812
Q21.0938 0.984375 25 0.984375
Q30.8125 0.984375 35.5469 4.375
Q40.2812 7.76562 40.2812 13.375
Q40.2812 15.2812 39.5156 17.1562
Q38.7656 19.0469 37.4219 20.5781
Q36.0781 22.125 34.4219 23.0938
L21 31.7812
Q17.875 30.125 15.25 27.5781
Q12.6406 25.0469 11.125 21.875
Q9.625 18.7031 9.625 15.1875
M16.5 45.7031
L28.6094 37.8906
Q32.8125 40.3281 35.5 43.7969
Q38.1875 47.2656 38.1875 51.6094
Q38.1875 54.9844 36.2969 57.7812
Q34.4219 60.5938 31.3906 62.1562
Q28.375 63.7188 24.9062 63.7188
Q21.875 63.7188 18.7969 62.5469
Q15.7188 61.375 13.7188 59.0469
Q11.7188 56.7344 11.7188 53.6094
Q11.7188 48.9219 16.5 45.7031" id="Cmr10-38"/>
      <path d="
M17.3906 2.59375
Q17.3906 8.15625 18.3594 13.4688
Q19.3438 18.7969 21.2188 24
Q23.0938 29.2031 25.75 34.2031
Q28.4219 39.2031 31.5938 43.6094
L40.7188 56.2969
L29.2969 56.2969
Q11.5312 56.2969 10.9844 55.8125
Q9.67188 54.2031 8.5 46.5781
L5.60938 46.5781
L8.89062 67.5781
L11.8125 67.5781
L11.8125 67.2812
Q11.8125 65.4844 17.9219 64.9375
Q24.0312 64.4062 29.8906 64.4062
L48.4844 64.4062
L48.4844 61.8125
Q48.4844 61.7188 48.4531 61.6719
Q48.4375 61.625 48.3906 61.5312
L34.625 42.1875
Q29.5469 34.6719 28.2656 25.4844
Q27 16.3125 27 2.59375
Q27 0.640625 25.5781 -0.78125
Q24.1719 -2.20312 22.2188 -2.20312
Q20.2188 -2.20312 18.7969 -0.78125
Q17.3906 0.640625 17.3906 2.59375" id="Cmr10-37"/>
      <path d="
M2.78125 16.5
L2.78125 20.0156
L33.6875 66.1094
Q34.0312 66.6094 34.7188 66.6094
L36.1875 66.6094
Q37.3125 66.6094 37.3125 65.4844
L37.3125 20.0156
L47.125 20.0156
L47.125 16.5
L37.3125 16.5
L37.3125 6.6875
Q37.3125 4.64062 40.2344 4.07812
Q43.1719 3.51562 47.0156 3.51562
L47.0156 0
L19.4844 0
L19.4844 3.51562
Q23.3438 3.51562 26.2656 4.07812
Q29.2031 4.64062 29.2031 6.6875
L29.2031 16.5
z

M6.10938 20.0156
L29.7812 20.0156
L29.7812 55.4219
z
" id="Cmr10-34"/>
     </defs>
     <g style="fill:#262626;" transform="translate(322.5 71.0)scale(0.1 -0.1)">
      <use transform="translate(0.0 0.015625)" xlink:href="#BitstreamVeraSans-Roman-4e"/>
      <use transform="translate(74.8046875 0.015625)" xlink:href="#BitstreamVeraSans-Roman-6f"/>
      <use transform="translate(135.986328125 0.015625)" xlink:href="#BitstreamVeraSans-Roman-72"/>
      <use transform="translate(177.099609375 0.015625)" xlink:href="#BitstreamVeraSans-Roman-6d"/>
      <use transform="translate(274.51171875 0.015625)" xlink:href="#BitstreamVeraSans-Roman-61"/>
      <use transform="translate(335.791015625 0.015625)" xlink:href="#BitstreamVeraSans-Roman-6c"/>
      <use transform="translate(363.57421875 0.015625)" xlink:href="#BitstreamVeraSans-Roman-44"/>
      <use transform="translate(440.576171875 0.015625)" xlink:href="#BitstreamVeraSans-Roman-46"/>
      <use transform="translate(498.095703125 0.015625)" xlink:href="#BitstreamVeraSans-Roman-54"/>
      <use transform="translate(559.1796875 0.015625)" xlink:href="#BitstreamVeraSans-Roman-32"/>
      <use transform="translate(622.802734375 0.015625)" xlink:href="#BitstreamVeraSans-Roman-20"/>
      <use transform="translate(680.927734375 0.015625)" xlink:href="#Cmmi10-b9"/>
      <use transform="translate(758.69140625 0.015625)" xlink:href="#Cmr10-3d"/>
      <use transform="translate(842.75 0.015625)" xlink:href="#Cmr10-34"/>
      <use transform="translate(892.75 0.015625)" xlink:href="#Cmr10-35"/>
      <use transform="translate(942.75 0.015625)" xlink:href="#Cmr10-38"/>
      <use transform="translate(992.75 0.015625)" xlink:href="#Cmr10-30"/>
      <use transform="translate(1042.75 0.015625)" xlink:href="#Cmmi10-3a"/>
      <use transform="translate(1071.29296875 0.015625)" xlink:href="#Cmr10-32"/>
      <use transform="translate(1121.29296875 0.015625)" xlink:href="#Cmr10-38"/>
      <use transform="translate(1197.63085938 0.015625)" xlink:href="#Cmmi10-be"/>
      <use transform="translate(1272.26953125 0.015625)" xlink:href="#Cmr10-3d"/>
      <use transform="translate(1356.328125 0.015625)" xlink:href="#Cmr10-33"/>
      <use transform="translate(1406.328125 0.015625)" xlink:href="#Cmr10-32"/>
      <use transform="translate(1456.328125 0.015625)" xlink:href="#Cmr10-37"/>
      <use transform="translate(1506.328125 0.015625)" xlink:href="#Cmmi10-3a"/>
      <use transform="translate(1534.87109375 0.015625)" xlink:href="#Cmr10-35"/>
      <use transform="translate(1584.87109375 0.015625)" xlink:href="#Cmr10-32"/>
     </g>
    </g>
    <g id="patch_15">
     <path d="
M294.5 85.8
L314.5 85.8
L314.5 78.8
L294.5 78.8
z
" style="fill:none;stroke:#c44e52;stroke-width:1.5;"/>
    </g>
    <g id="text_20">
     <!-- MyTaylorDFT $\mathrm{}\ \mu=12897.57\ \sigma=741.06$ -->
     <defs>
      <path d="
M9.8125 72.9062
L24.5156 72.9062
L43.1094 23.2969
L61.8125 72.9062
L76.5156 72.9062
L76.5156 0
L66.8906 0
L66.8906 64.0156
L48.0938 14.0156
L38.1875 14.0156
L19.3906 64.0156
L19.3906 0
L9.8125 0
z
" id="BitstreamVeraSans-Roman-4d"/>
      <path d="
M25 -2.20312
Q18.7969 -2.20312 14.6406 1.09375
Q10.5 4.39062 8.21875 9.64062
Q5.95312 14.8906 5.07812 20.6562
Q4.20312 26.4219 4.20312 32.3281
Q4.20312 40.2344 7.28125 48.1875
Q10.3594 56.1562 16.3281 61.375
Q22.3125 66.6094 30.5156 66.6094
Q33.9375 66.6094 36.8906 65.3125
Q39.8438 64.0156 41.5312 61.5
Q43.2188 58.9844 43.2188 55.4219
Q43.2188 53.375 41.8281 51.9844
Q40.4375 50.5938 38.375 50.5938
Q36.4219 50.5938 35 52
Q33.5938 53.4219 33.5938 55.4219
Q33.5938 57.375 35 58.7812
Q36.4219 60.2031 38.375 60.2031
L38.9219 60.2031
Q37.6406 62.0156 35.3281 62.8594
Q33.0156 63.7188 30.5156 63.7188
Q27.4844 63.7188 24.9219 62.3906
Q22.3594 61.0781 20.3125 58.8281
Q18.2656 56.5938 16.8906 53.875
Q15.5312 51.1719 14.7656 47.7031
Q14.0156 44.2344 13.8125 41.2031
Q13.625 38.1875 13.625 33.5938
Q15.375 37.7031 18.5938 40.3125
Q21.8281 42.9219 25.875 42.9219
Q30.3281 42.9219 33.9844 41.1094
Q37.6406 39.3125 40.2812 36.1094
Q42.9219 32.9062 44.3125 28.7969
Q45.7031 24.7031 45.7031 20.5156
Q45.7031 14.6562 43.0938 9.34375
Q40.4844 4.04688 35.7344 0.921875
Q31 -2.20312 25 -2.20312
M25 0.984375
Q28.8594 0.984375 31.2031 2.73438
Q33.5469 4.5 34.6406 7.39062
Q35.75 10.2969 36.0156 13.25
Q36.2812 16.2188 36.2812 20.5156
Q36.2812 26.1719 35.7344 30.1719
Q35.2031 34.1875 32.8125 37.2344
Q30.4219 40.2812 25.4844 40.2812
Q21.4375 40.2812 18.8281 37.5469
Q16.2188 34.8125 15.0156 30.6406
Q13.8125 26.4688 13.8125 22.6094
Q13.8125 21.2969 13.9219 20.6094
Q13.9219 20.4531 13.8906 20.3594
Q13.875 20.2656 13.8125 20.125
Q13.8125 15.8281 14.6875 11.4219
Q15.5781 7.03125 18.0625 4
Q20.5625 0.984375 25 0.984375" id="Cmr10-36"/>
      <path d="
M32.1719 -5.07812
Q28.375 -14.8438 24.75 -17.8125
Q21.1406 -20.7969 15.0938 -20.7969
L7.90625 -20.7969
L7.90625 -13.2812
L13.1875 -13.2812
Q16.8906 -13.2812 18.9375 -11.5156
Q21 -9.76562 23.4844 -3.21875
L25.0938 0.875
L2.98438 54.6875
L12.5 54.6875
L29.5938 11.9219
L46.6875 54.6875
L56.2031 54.6875
z
" id="BitstreamVeraSans-Roman-79"/>
     </defs>
     <g style="fill:#262626;" transform="translate(322.5 85.8)scale(0.1 -0.1)">
      <use transform="translate(0.0 0.015625)" xlink:href="#BitstreamVeraSans-Roman-4d"/>
      <use transform="translate(86.279296875 0.015625)" xlink:href="#BitstreamVeraSans-Roman-79"/>
      <use transform="translate(145.458984375 0.015625)" xlink:href="#BitstreamVeraSans-Roman-54"/>
      <use transform="translate(206.54296875 0.015625)" xlink:href="#BitstreamVeraSans-Roman-61"/>
      <use transform="translate(267.822265625 0.015625)" xlink:href="#BitstreamVeraSans-Roman-79"/>
      <use transform="translate(327.001953125 0.015625)" xlink:href="#BitstreamVeraSans-Roman-6c"/>
      <use transform="translate(354.78515625 0.015625)" xlink:href="#BitstreamVeraSans-Roman-6f"/>
      <use transform="translate(415.966796875 0.015625)" xlink:href="#BitstreamVeraSans-Roman-72"/>
      <use transform="translate(457.080078125 0.015625)" xlink:href="#BitstreamVeraSans-Roman-44"/>
      <use transform="translate(534.08203125 0.015625)" xlink:href="#BitstreamVeraSans-Roman-46"/>
      <use transform="translate(591.6015625 0.015625)" xlink:href="#BitstreamVeraSans-Roman-54"/>
      <use transform="translate(652.685546875 0.015625)" xlink:href="#BitstreamVeraSans-Roman-20"/>
      <use transform="translate(710.810546875 0.015625)" xlink:href="#Cmmi10-b9"/>
      <use transform="translate(788.57421875 0.015625)" xlink:href="#Cmr10-3d"/>
      <use transform="translate(872.6328125 0.015625)" xlink:href="#Cmr10-31"/>
      <use transform="translate(922.6328125 0.015625)" xlink:href="#Cmr10-32"/>
      <use transform="translate(972.6328125 0.015625)" xlink:href="#Cmr10-38"/>
      <use transform="translate(1022.6328125 0.015625)" xlink:href="#Cmr10-39"/>
      <use transform="translate(1072.6328125 0.015625)" xlink:href="#Cmr10-37"/>
      <use transform="translate(1122.6328125 0.015625)" xlink:href="#Cmmi10-3a"/>
      <use transform="translate(1151.17578125 0.015625)" xlink:href="#Cmr10-35"/>
      <use transform="translate(1201.17578125 0.015625)" xlink:href="#Cmr10-37"/>
      <use transform="translate(1277.51367188 0.015625)" xlink:href="#Cmmi10-be"/>
      <use transform="translate(1352.15234375 0.015625)" xlink:href="#Cmr10-3d"/>
      <use transform="translate(1436.2109375 0.015625)" xlink:href="#Cmr10-37"/>
      <use transform="translate(1486.2109375 0.015625)" xlink:href="#Cmr10-34"/>
      <use transform="translate(1536.2109375 0.015625)" xlink:href="#Cmr10-31"/>
      <use transform="translate(1586.2109375 0.015625)" xlink:href="#Cmmi10-3a"/>
      <use transform="translate(1614.75390625 0.015625)" xlink:href="#Cmr10-30"/>
      <use transform="translate(1664.75390625 0.015625)" xlink:href="#Cmr10-36"/>
     </g>
    </g>
    <g id="patch_16">
     <path d="
M294.5 100.6
L314.5 100.6
L314.5 93.6
L294.5 93.6
z
" style="fill:none;stroke:#8172b2;stroke-width:1.5;"/>
    </g>
    <g id="text_21">
     <!-- MyTaylorDFT2 $\mathrm{}\ \mu=4264.82\ \sigma=338.20$ -->
     <g style="fill:#262626;" transform="translate(322.5 100.6)scale(0.1 -0.1)">
      <use transform="translate(0.0 0.015625)" xlink:href="#BitstreamVeraSans-Roman-4d"/>
      <use transform="translate(86.279296875 0.015625)" xlink:href="#BitstreamVeraSans-Roman-79"/>
      <use transform="translate(145.458984375 0.015625)" xlink:href="#BitstreamVeraSans-Roman-54"/>
      <use transform="translate(206.54296875 0.015625)" xlink:href="#BitstreamVeraSans-Roman-61"/>
      <use transform="translate(267.822265625 0.015625)" xlink:href="#BitstreamVeraSans-Roman-79"/>
      <use transform="translate(327.001953125 0.015625)" xlink:href="#BitstreamVeraSans-Roman-6c"/>
      <use transform="translate(354.78515625 0.015625)" xlink:href="#BitstreamVeraSans-Roman-6f"/>
      <use transform="translate(415.966796875 0.015625)" xlink:href="#BitstreamVeraSans-Roman-72"/>
      <use transform="translate(457.080078125 0.015625)" xlink:href="#BitstreamVeraSans-Roman-44"/>
      <use transform="translate(534.08203125 0.015625)" xlink:href="#BitstreamVeraSans-Roman-46"/>
      <use transform="translate(591.6015625 0.015625)" xlink:href="#BitstreamVeraSans-Roman-54"/>
      <use transform="translate(652.685546875 0.015625)" xlink:href="#BitstreamVeraSans-Roman-32"/>
      <use transform="translate(716.30859375 0.015625)" xlink:href="#BitstreamVeraSans-Roman-20"/>
      <use transform="translate(774.43359375 0.015625)" xlink:href="#Cmmi10-b9"/>
      <use transform="translate(852.197265625 0.015625)" xlink:href="#Cmr10-3d"/>
      <use transform="translate(936.255859375 0.015625)" xlink:href="#Cmr10-34"/>
      <use transform="translate(986.255859375 0.015625)" xlink:href="#Cmr10-32"/>
      <use transform="translate(1036.25585938 0.015625)" xlink:href="#Cmr10-36"/>
      <use transform="translate(1086.25585938 0.015625)" xlink:href="#Cmr10-34"/>
      <use transform="translate(1136.25585938 0.015625)" xlink:href="#Cmmi10-3a"/>
      <use transform="translate(1164.79882812 0.015625)" xlink:href="#Cmr10-38"/>
      <use transform="translate(1214.79882812 0.015625)" xlink:href="#Cmr10-32"/>
      <use transform="translate(1291.13671875 0.015625)" xlink:href="#Cmmi10-be"/>
      <use transform="translate(1365.77539062 0.015625)" xlink:href="#Cmr10-3d"/>
      <use transform="translate(1449.83398438 0.015625)" xlink:href="#Cmr10-33"/>
      <use transform="translate(1499.83398438 0.015625)" xlink:href="#Cmr10-33"/>
      <use transform="translate(1549.83398438 0.015625)" xlink:href="#Cmr10-38"/>
      <use transform="translate(1599.83398438 0.015625)" xlink:href="#Cmmi10-3a"/>
      <use transform="translate(1628.37695312 0.015625)" xlink:href="#Cmr10-32"/>
      <use transform="translate(1678.37695312 0.015625)" xlink:href="#Cmr10-30"/>
     </g>
    </g>
    <g id="patch_17">
     <path d="
M294.5 115.4
L314.5 115.4
L314.5 108.4
L294.5 108.4
z
" style="fill:none;stroke:#ccb974;stroke-width:1.5;"/>
    </g>
    <g id="text_22">
     <!-- MyTableDFT $\mathrm{}\ \mu=4241.31\ \sigma=325.77$ -->
     <defs>
      <path d="
M56.2031 29.5938
L56.2031 25.2031
L14.8906 25.2031
Q15.4844 15.9219 20.4844 11.0625
Q25.4844 6.20312 34.4219 6.20312
Q39.5938 6.20312 44.4531 7.46875
Q49.3125 8.73438 54.1094 11.2812
L54.1094 2.78125
Q49.2656 0.734375 44.1875 -0.34375
Q39.1094 -1.42188 33.8906 -1.42188
Q20.7969 -1.42188 13.1562 6.1875
Q5.51562 13.8125 5.51562 26.8125
Q5.51562 40.2344 12.7656 48.1094
Q20.0156 56 32.3281 56
Q43.3594 56 49.7812 48.8906
Q56.2031 41.7969 56.2031 29.5938
M47.2188 32.2344
Q47.125 39.5938 43.0938 43.9844
Q39.0625 48.3906 32.4219 48.3906
Q24.9062 48.3906 20.3906 44.1406
Q15.875 39.8906 15.1875 32.1719
z
" id="BitstreamVeraSans-Roman-65"/>
      <path d="
M48.6875 27.2969
Q48.6875 37.2031 44.6094 42.8438
Q40.5312 48.4844 33.4062 48.4844
Q26.2656 48.4844 22.1875 42.8438
Q18.1094 37.2031 18.1094 27.2969
Q18.1094 17.3906 22.1875 11.75
Q26.2656 6.10938 33.4062 6.10938
Q40.5312 6.10938 44.6094 11.75
Q48.6875 17.3906 48.6875 27.2969
M18.1094 46.3906
Q20.9531 51.2656 25.2656 53.625
Q29.5938 56 35.5938 56
Q45.5625 56 51.7812 48.0938
Q58.0156 40.1875 58.0156 27.2969
Q58.0156 14.4062 51.7812 6.48438
Q45.5625 -1.42188 35.5938 -1.42188
Q29.5938 -1.42188 25.2656 0.953125
Q20.9531 3.32812 18.1094 8.20312
L18.1094 0
L9.07812 0
L9.07812 75.9844
L18.1094 75.9844
z
" id="BitstreamVeraSans-Roman-62"/>
     </defs>
     <g style="fill:#262626;" transform="translate(322.5 115.4)scale(0.1 -0.1)">
      <use transform="translate(0.0 0.015625)" xlink:href="#BitstreamVeraSans-Roman-4d"/>
      <use transform="translate(86.279296875 0.015625)" xlink:href="#BitstreamVeraSans-Roman-79"/>
      <use transform="translate(145.458984375 0.015625)" xlink:href="#BitstreamVeraSans-Roman-54"/>
      <use transform="translate(206.54296875 0.015625)" xlink:href="#BitstreamVeraSans-Roman-61"/>
      <use transform="translate(267.822265625 0.015625)" xlink:href="#BitstreamVeraSans-Roman-62"/>
      <use transform="translate(331.298828125 0.015625)" xlink:href="#BitstreamVeraSans-Roman-6c"/>
      <use transform="translate(359.08203125 0.015625)" xlink:href="#BitstreamVeraSans-Roman-65"/>
      <use transform="translate(420.60546875 0.015625)" xlink:href="#BitstreamVeraSans-Roman-44"/>
      <use transform="translate(497.607421875 0.015625)" xlink:href="#BitstreamVeraSans-Roman-46"/>
      <use transform="translate(555.126953125 0.015625)" xlink:href="#BitstreamVeraSans-Roman-54"/>
      <use transform="translate(616.2109375 0.015625)" xlink:href="#BitstreamVeraSans-Roman-20"/>
      <use transform="translate(674.3359375 0.015625)" xlink:href="#Cmmi10-b9"/>
      <use transform="translate(752.099609375 0.015625)" xlink:href="#Cmr10-3d"/>
      <use transform="translate(836.158203125 0.015625)" xlink:href="#Cmr10-34"/>
      <use transform="translate(886.158203125 0.015625)" xlink:href="#Cmr10-32"/>
      <use transform="translate(936.158203125 0.015625)" xlink:href="#Cmr10-34"/>
      <use transform="translate(986.158203125 0.015625)" xlink:href="#Cmr10-31"/>
      <use transform="translate(1036.15820312 0.015625)" xlink:href="#Cmmi10-3a"/>
      <use transform="translate(1064.70117188 0.015625)" xlink:href="#Cmr10-33"/>
      <use transform="translate(1114.70117188 0.015625)" xlink:href="#Cmr10-31"/>
      <use transform="translate(1191.0390625 0.015625)" xlink:href="#Cmmi10-be"/>
      <use transform="translate(1265.67773438 0.015625)" xlink:href="#Cmr10-3d"/>
      <use transform="translate(1349.73632812 0.015625)" xlink:href="#Cmr10-33"/>
      <use transform="translate(1399.73632812 0.015625)" xlink:href="#Cmr10-32"/>
      <use transform="translate(1449.73632812 0.015625)" xlink:href="#Cmr10-35"/>
      <use transform="translate(1499.73632812 0.015625)" xlink:href="#Cmmi10-3a"/>
      <use transform="translate(1528.27929688 0.015625)" xlink:href="#Cmr10-37"/>
      <use transform="translate(1578.27929688 0.015625)" xlink:href="#Cmr10-37"/>
     </g>
    </g>
    <g id="patch_18">
     <path d="
M294.5 130.2
L314.5 130.2
L314.5 123.2
L294.5 123.2
z
" style="fill:none;stroke:#64b5cd;stroke-width:1.5;"/>
    </g>
    <g id="text_23">
     <!-- MyTableDFT_SSE $\mathrm{}\ \mu=3266.26\ \sigma=269.03$ -->
     <defs>
      <path d="
M9.8125 72.9062
L55.9062 72.9062
L55.9062 64.5938
L19.6719 64.5938
L19.6719 43.0156
L54.3906 43.0156
L54.3906 34.7188
L19.6719 34.7188
L19.6719 8.29688
L56.7812 8.29688
L56.7812 0
L9.8125 0
z
" id="BitstreamVeraSans-Roman-45"/>
      <path d="
M50.9844 -16.6094
L50.9844 -23.5781
L-0.984375 -23.5781
L-0.984375 -16.6094
z
" id="BitstreamVeraSans-Roman-5f"/>
     </defs>
     <g style="fill:#262626;" transform="translate(322.5 130.2)scale(0.1 -0.1)">
      <use transform="translate(0.0 0.015625)" xlink:href="#BitstreamVeraSans-Roman-4d"/>
      <use transform="translate(86.279296875 0.015625)" xlink:href="#BitstreamVeraSans-Roman-79"/>
      <use transform="translate(145.458984375 0.015625)" xlink:href="#BitstreamVeraSans-Roman-54"/>
      <use transform="translate(206.54296875 0.015625)" xlink:href="#BitstreamVeraSans-Roman-61"/>
      <use transform="translate(267.822265625 0.015625)" xlink:href="#BitstreamVeraSans-Roman-62"/>
      <use transform="translate(331.298828125 0.015625)" xlink:href="#BitstreamVeraSans-Roman-6c"/>
      <use transform="translate(359.08203125 0.015625)" xlink:href="#BitstreamVeraSans-Roman-65"/>
      <use transform="translate(420.60546875 0.015625)" xlink:href="#BitstreamVeraSans-Roman-44"/>
      <use transform="translate(497.607421875 0.015625)" xlink:href="#BitstreamVeraSans-Roman-46"/>
      <use transform="translate(555.126953125 0.015625)" xlink:href="#BitstreamVeraSans-Roman-54"/>
      <use transform="translate(616.2109375 0.015625)" xlink:href="#BitstreamVeraSans-Roman-5f"/>
      <use transform="translate(666.2109375 0.015625)" xlink:href="#BitstreamVeraSans-Roman-53"/>
      <use transform="translate(729.6875 0.015625)" xlink:href="#BitstreamVeraSans-Roman-53"/>
      <use transform="translate(793.1640625 0.015625)" xlink:href="#BitstreamVeraSans-Roman-45"/>
      <use transform="translate(856.34765625 0.015625)" xlink:href="#BitstreamVeraSans-Roman-20"/>
      <use transform="translate(914.47265625 0.015625)" xlink:href="#Cmmi10-b9"/>
      <use transform="translate(992.236328125 0.015625)" xlink:href="#Cmr10-3d"/>
      <use transform="translate(1076.29492188 0.015625)" xlink:href="#Cmr10-33"/>
      <use transform="translate(1126.29492188 0.015625)" xlink:href="#Cmr10-32"/>
      <use transform="translate(1176.29492188 0.015625)" xlink:href="#Cmr10-36"/>
      <use transform="translate(1226.29492188 0.015625)" xlink:href="#Cmr10-36"/>
      <use transform="translate(1276.29492188 0.015625)" xlink:href="#Cmmi10-3a"/>
      <use transform="translate(1304.83789062 0.015625)" xlink:href="#Cmr10-32"/>
      <use transform="translate(1354.83789062 0.015625)" xlink:href="#Cmr10-36"/>
      <use transform="translate(1431.17578125 0.015625)" xlink:href="#Cmmi10-be"/>
      <use transform="translate(1505.81445312 0.015625)" xlink:href="#Cmr10-3d"/>
      <use transform="translate(1589.87304688 0.015625)" xlink:href="#Cmr10-32"/>
      <use transform="translate(1639.87304688 0.015625)" xlink:href="#Cmr10-36"/>
      <use transform="translate(1689.87304688 0.015625)" xlink:href="#Cmr10-39"/>
      <use transform="translate(1739.87304688 0.015625)" xlink:href="#Cmmi10-3a"/>
      <use transform="translate(1768.41601562 0.015625)" xlink:href="#Cmr10-30"/>
      <use transform="translate(1818.41601562 0.015625)" xlink:href="#Cmr10-33"/>
     </g>
    </g>
   </g>
  </g>
 </g>
 <defs>
  <clipPath id="p3d386a08f4">
   <rect height="316.8" width="446.4" x="72.0" y="39.6"/>
  </clipPath>
 </defs>
</svg>
